<?xml version="1.0" encoding="utf-8"?>
<!-- Generated by IcoMoon.io -->
<!DOCTYPE svg PUBLIC "-//W3C//DTD SVG 1.1//EN" "http://www.w3.org/Graphics/SVG/1.1/DTD/svg11.dtd">
<svg version="1.1" xmlns="http://www.w3.org/2000/svg" xmlns:xlink="http://www.w3.org/1999/xlink" width="32" height="32" viewBox="0 0 32 32">
<path d="M31.62 16c0 4.17-1.62 8.1-4.58 11.050-2.96 2.96-6.88 4.58-11.050 4.58s-8.1-1.62-11.050-4.58c-2.96-2.95-4.58-6.88-4.58-11.050s1.63-8.11 4.59-11.060c2.95-2.96 6.88-4.58 11.050-4.58s8.1 1.63 11.040 4.59c2.96 2.95 4.58 6.88 4.58 11.050z" fill="rgb(255, 255, 255)"></path>
<path d="M16 32c-4.277 0-8.288-1.664-11.317-4.684-3.019-3.028-4.683-7.039-4.683-11.316s1.664-8.288 4.683-11.317c3.029-3.019 7.040-4.683 11.317-4.683s8.288 1.664 11.316 4.683c3.020 3.019 4.684 7.040 4.684 11.317s-1.664 8.288-4.684 11.316c-3.028 3.020-7.039 4.684-11.316 4.684zM16 0.363c-4.171 0-8.096 1.621-11.051 4.576s-4.587 6.891-4.587 11.061c0 4.171 1.621 8.096 4.576 11.051s6.88 4.576 11.051 4.576c4.171 0 8.096-1.621 11.051-4.576s4.576-6.88 4.576-11.051-1.621-8.096-4.576-11.051c-2.944-2.955-6.869-4.587-11.040-4.586v0z" fill="rgb(68, 68, 68)"></path>
<path d="M11.051 9.376l-0.192-0.16c0 0.203-0.139 0.363-0.341 0.459-0.331 0.149-0.704 0.011-0.907-0.448l-0.928-2.123c-0.181-0.405-0.053-0.821 0.352-0.992 0.405-0.181 0.747 0.011 0.928 0.427l0.203 0.459-0.341 0.149-0.235-0.523c-0.064-0.149-0.224-0.245-0.405-0.16-0.192 0.085-0.224 0.267-0.16 0.416l0.981 2.229c0.075 0.171 0.224 0.277 0.427 0.192 0.192-0.085 0.235-0.267 0.16-0.448l-0.352-0.768-0.277 0.117-0.139-0.32 0.629-0.277 0.747 1.707-0.15 0.064z" fill="rgb(68, 68, 68)"></path>
<path d="M12.651 8.917c-0.427 0.107-0.779-0.139-0.885-0.576l-0.565-2.219c-0.107-0.437 0.075-0.821 0.501-0.939 0.427-0.107 0.779 0.139 0.885 0.576l0.565 2.219c0.117 0.437-0.075 0.821-0.501 0.939zM12.192 5.803c-0.043-0.181-0.192-0.299-0.395-0.245s-0.267 0.224-0.224 0.405l0.597 2.336c0.053 0.192 0.192 0.299 0.384 0.245 0.203-0.053 0.277-0.213 0.224-0.405l-0.586-2.336z" fill="rgb(68, 68, 68)"></path>
<path d="M14.368 5.195l0.32 3.349-0.395 0.043-0.32-3.349-0.501 0.043-0.032-0.384 1.376-0.128 0.032 0.384-0.48 0.042z" fill="rgb(68, 68, 68)"></path>
<path d="M16.8 8.544l0.097-1.664-0.629-0.043-0.096 1.664-0.406-0.021 0.224-3.733 0.405 0.021-0.107 1.696 0.629 0.043 0.106-1.696 0.396 0.021-0.224 3.733-0.395-0.021z" fill="rgb(68, 68, 68)"></path>
<path d="M19.020 8.907l0.074-0.811-0.501-0.117-0.299 0.768-0.373-0.085 1.388-3.531 0.416 0.096-0.3 3.776-0.405-0.096zM19.307 6.037l-0.586 1.579 0.404 0.096 0.182-1.675z" fill="rgb(68, 68, 68)"></path>
<path d="M21.547 9.856l1.12-2.603-0.341 0.565-1.174 1.867-0.34-0.149 0.533-2.144 0.17-0.629-1.119 2.603-0.332-0.139 1.483-3.445 0.533 0.224-0.608 2.261-0.171 0.629 0.341-0.565 1.217-1.995 0.512 0.224-1.482 3.435-0.342-0.139z" fill="rgb(68, 68, 68)"></path>
<path d="M23.456 17.792c-0.629 0-1.185 0.16-1.644 0.384-0.17-0.331-0.34-0.629-0.362-0.853-0.032-0.257-0.075-0.405-0.032-0.716 0.043-0.31 0.213-0.735 0.213-0.768 0-0.032-0.043-0.192-0.404-0.192-0.363 0-0.672 0.075-0.715 0.171-0.033 0.096-0.107 0.309-0.15 0.544-0.063 0.331-0.725 1.515-1.108 2.124-0.128-0.245-0.224-0.448-0.245-0.619-0.031-0.256-0.074-0.405-0.031-0.715 0.043-0.311 0.213-0.736 0.213-0.769s-0.043-0.192-0.405-0.192-0.673 0.075-0.716 0.171c-0.031 0.096-0.074 0.321-0.148 0.544-0.074 0.213-0.96 2.187-1.184 2.698-0.117 0.256-0.225 0.47-0.288 0.608v0c0 0 0 0.011-0.011 0.021-0.064 0.117-0.096 0.192-0.096 0.192v0c-0.053 0.085-0.107 0.171-0.128 0.171s-0.053-0.234 0.011-0.564c0.128-0.684 0.448-1.749 0.448-1.781 0-0.021 0.064-0.203-0.203-0.299-0.256-0.096-0.352 0.064-0.373 0.064s-0.043 0.053-0.043 0.053 0.288-1.195-0.544-1.195c-0.523 0-1.248 0.564-1.6 1.088-0.224 0.117-0.704 0.385-1.216 0.661-0.192 0.106-0.395 0.213-0.587 0.319-0.011-0.010-0.021-0.031-0.043-0.043-1.013-1.076-2.88-1.844-2.805-3.295 0.032-0.523 0.213-1.92 3.595-3.595 2.773-1.376 4.981-1.003 5.365-0.16 0.544 1.205-1.184 3.435-4.064 3.755-1.099 0.128-1.675-0.299-1.813-0.459-0.149-0.171-0.171-0.171-0.235-0.139-0.096 0.053-0.032 0.203 0 0.288 0.085 0.224 0.437 0.619 1.035 0.821 0.533 0.171 1.813 0.267 3.371-0.331 1.739-0.672 3.104-2.549 2.699-4.117-0.404-1.589-3.051-2.112-5.547-1.227-1.493 0.533-3.104 1.355-4.256 2.443-1.376 1.291-1.6 2.411-1.504 2.88 0.32 1.664 2.613 2.751 3.531 3.552-0.043 0.021-0.085 0.053-0.128 0.074-0.459 0.225-2.208 1.142-2.645 2.112-0.501 1.099 0.075 1.888 0.459 1.995 1.184 0.331 2.389-0.268 3.040-1.237 0.651-0.97 0.576-2.229 0.277-2.805 0-0.011-0.011-0.011-0.011-0.021 0.117-0.076 0.245-0.14 0.363-0.213 0.235-0.14 0.469-0.268 0.661-0.373-0.107 0.309-0.192 0.672-0.235 1.205-0.053 0.618 0.203 1.428 0.544 1.748 0.149 0.139 0.32 0.139 0.437 0.139 0.384 0 0.565-0.319 0.757-0.703 0.235-0.469 0.448-1.014 0.448-1.014s-0.267 1.473 0.459 1.473c0.267 0 0.533-0.342 0.651-0.523v0c0 0 0.012-0.011 0.021-0.031 0.031-0.043 0.043-0.064 0.043-0.064s0 0 0-0.012c0.107-0.181 0.341-0.607 0.693-1.301 0.459-0.896 0.896-2.026 0.896-2.026s0.043 0.276 0.171 0.725c0.075 0.267 0.245 0.565 0.373 0.843-0.107 0.149-0.171 0.235-0.171 0.235v0c-0.085 0.117-0.181 0.235-0.276 0.353-0.363 0.426-0.789 0.916-0.854 1.066-0.064 0.171-0.053 0.288 0.074 0.384 0.097 0.075 0.268 0.085 0.449 0.075 0.319-0.021 0.555-0.107 0.66-0.148 0.172-0.064 0.385-0.16 0.576-0.299 0.352-0.257 0.564-0.63 0.544-1.132-0.011-0.267-0.096-0.544-0.203-0.8 0.032-0.043 0.064-0.096 0.097-0.139 0.555-0.812 0.992-1.717 0.992-1.717s0.043 0.276 0.17 0.725c0.064 0.234 0.203 0.48 0.32 0.725-0.523 0.428-0.854 0.917-0.96 1.248-0.213 0.598-0.043 0.875 0.267 0.939 0.14 0.031 0.332-0.032 0.48-0.096 0.182-0.064 0.404-0.16 0.607-0.31 0.353-0.256 0.693-0.629 0.672-1.12-0.010-0.224-0.074-0.447-0.148-0.661 0.448-0.181 1.023-0.288 1.749-0.202 1.579 0.181 1.877 1.162 1.824 1.578-0.063 0.416-0.384 0.641-0.501 0.704-0.107 0.064-0.148 0.097-0.139 0.14 0.011 0.074 0.063 0.074 0.16 0.053 0.127-0.021 0.82-0.331 0.853-1.1 0.063-0.969-0.865-2.025-2.497-2.015v0zM11.328 21.877c-0.523 0.564-1.248 0.779-1.557 0.598-0.341-0.192-0.203-1.035 0.437-1.633 0.395-0.363 0.896-0.703 1.227-0.917 0.075-0.043 0.192-0.116 0.32-0.192 0.021-0.010 0.032-0.021 0.032-0.021v0c0.021-0.011 0.053-0.032 0.085-0.053 0.224 0.864 0 1.621-0.544 2.218v0zM15.125 19.296c-0.181 0.437-0.565 1.579-0.789 1.515-0.203-0.053-0.32-0.916-0.043-1.76 0.139-0.427 0.437-0.939 0.619-1.131 0.288-0.32 0.597-0.427 0.672-0.288 0.096 0.149-0.352 1.388-0.459 1.664zM18.262 20.789c-0.076 0.043-0.15 0.064-0.182 0.043-0.021-0.012 0.031-0.064 0.031-0.064s0.396-0.427 0.545-0.619c0.085-0.106 0.191-0.244 0.309-0.395 0 0.012 0 0.032 0 0.043 0 0.512-0.49 0.853-0.703 0.992zM20.672 20.245c-0.053-0.043-0.043-0.171 0.139-0.587 0.076-0.16 0.246-0.438 0.533-0.693 0.032 0.107 0.053 0.213 0.053 0.309 0.011 0.628-0.448 0.865-0.725 0.971z" fill="rgb(68, 68, 68)"></path>
<path d="M12.683 26.293v-1.236l-0.043 0.287-0.149 0.949h-0.16l-0.149-0.949-0.043-0.287v1.236h-0.16v-1.632h0.256l0.149 1.013 0.043 0.288 0.043-0.288 0.149-1.013h0.245v1.632h-0.181z" fill="rgb(68, 68, 68)"></path>
<path d="M13.728 26.293v-1.632h0.523v0.159h-0.341v0.545h0.245v0.16h-0.245v0.597h0.341v0.16h-0.523v0.011z" fill="rgb(68, 68, 68)"></path>
<path d="M15.104 26.293v-1.632h0.523v0.159h-0.341v0.545h0.245v0.16h-0.245v0.597h0.341v0.16h-0.523v0.011z" fill="rgb(68, 68, 68)"></path>
<path d="M16.854 24.832v1.473h-0.172v-1.473h-0.212v-0.171h0.608v0.171h-0.224z" fill="rgb(68, 68, 68)"></path>
<path d="M18.219 26.325c-0.181 0-0.309-0.128-0.309-0.331v-1.333h0.181v1.344c0 0.097 0.043 0.149 0.14 0.149 0.096 0 0.139-0.053 0.139-0.149v-1.344h0.171v1.333c-0.011 0.203-0.149 0.331-0.319 0.331h-0.003z" fill="rgb(68, 68, 68)"></path>
<path d="M19.723 25.6h-0.148v0.693h-0.182v-1.632h0.32c0.148 0 0.277 0.085 0.277 0.299v0.353c0.011 0.212-0.117 0.287-0.267 0.287zM19.818 24.949c0-0.075-0.031-0.117-0.096-0.117h-0.148v0.619h0.148c0.064 0 0.096-0.043 0.096-0.117v-0.385z" fill="rgb(68, 68, 68)"></path>
<path d="M13.76 27.413h4.588v0.213h-4.588v-0.213z" fill="rgb(68, 68, 68)"></path>
<path d="M15.627 28.075h-0.117l0.427-1.109h0.117l-0.427 1.109z" fill="rgb(68, 68, 68)"></path>
<path d="M16.16 28.075h-0.117l0.427-1.109h0.117l-0.427 1.109z" fill="rgb(68, 68, 68)"></path>
</svg>
