<?xml version="1.0" encoding="utf-8"?>
<!-- Generated by IcoMoon.io -->
<!DOCTYPE svg PUBLIC "-//W3C//DTD SVG 1.1//EN" "http://www.w3.org/Graphics/SVG/1.1/DTD/svg11.dtd">
<svg version="1.1" xmlns="http://www.w3.org/2000/svg" xmlns:xlink="http://www.w3.org/1999/xlink" width="32" height="32" viewBox="0 0 32 32">
<path d="M31.259 16c0 4.073-1.583 7.912-4.474 10.794-2.892 2.892-6.722 4.475-10.795 4.475-4.074 0-7.913-1.583-10.794-4.475-2.892-2.882-4.474-6.721-4.474-10.794s1.592-7.922 4.484-10.804c2.881-2.892 6.721-4.474 10.794-4.474s7.912 1.593 10.785 4.484c2.891 2.881 4.474 6.721 4.474 10.794z" fill="rgb(255, 255, 255)"></path>
<path d="M16 31.63c-4.178 0-8.096-1.626-11.055-4.575-2.949-2.958-4.575-6.876-4.575-11.055s1.625-8.096 4.575-11.055c2.959-2.949 6.877-4.575 11.055-4.575 4.179 0 8.097 1.625 11.055 4.575 2.949 2.949 4.575 6.877 4.575 11.055 0 4.179-1.626 8.097-4.575 11.055-2.958 2.949-6.876 4.575-11.055 4.575zM16 0.725c-4.074 0-7.908 1.583-10.795 4.47s-4.481 6.732-4.481 10.805c0 4.074 1.583 7.908 4.47 10.795s6.721 4.471 10.795 4.471c4.075 0 7.91-1.584 10.796-4.471s4.47-6.721 4.47-10.795-1.583-7.909-4.47-10.795c-2.877-2.887-6.711-4.481-10.785-4.48v0z" fill="rgb(68, 68, 68)"></path>
<path d="M20.829 24.616v0.39h-4.419l-0.233 1.24-0.31-0.157 0.195-1.083h-0.66l-0.233 1.24-0.349-0.157 0.233-1.083h-4.69v-0.39h4.767l0.233-0.852h0.31l-0.194 0.852h0.659l0.233-0.852h0.349l-0.233 0.852z" fill="rgb(93, 93, 93)"></path>
<path d="M15.446 11.817v1.142h-1.408v-1.218c0-1.199-0.476-1.922-1.56-1.922-1.065 0-1.56 0.723-1.56 1.922v7.040c0 1.199 0.495 1.922 1.56 1.922 1.084 0 1.56-0.723 1.56-1.922v-2.664h-1.37v-1.332h2.778v3.919c0 2.017-0.951 3.349-3.006 3.349-2.036 0-2.987-1.332-2.987-3.349v-6.888c0-2.017 0.951-3.349 2.987-3.349 2.055 0.001 3.006 1.333 3.006 3.35z" fill="rgb(93, 93, 93)"></path>
<path d="M22.621 11.798v0.361h-1.408v-0.438c0-1.199-0.457-1.903-1.522-1.903s-1.522 0.704-1.522 1.884c0 2.987 4.472 3.272 4.472 7.021 0 2.017-0.971 3.329-3.006 3.329-2.036 0-2.987-1.312-2.987-3.329v-0.762h1.389v0.838c0 1.198 0.494 1.902 1.561 1.902 1.065 0 1.56-0.704 1.56-1.902 0-2.969-4.452-3.254-4.452-7.002 0-2.055 0.951-3.33 2.949-3.33 2.014 0.001 2.966 1.314 2.966 3.331z" fill="rgb(93, 93, 93)"></path>
</svg>
