<?xml version="1.0" encoding="utf-8"?>
<!-- Generator: Adobe Illustrator 16.0.0, SVG Export Plug-In . SVG Version: 6.00 Build 0)  -->
<!DOCTYPE svg PUBLIC "-//W3C//DTD SVG 1.1//EN" "http://www.w3.org/Graphics/SVG/1.1/DTD/svg11.dtd">
<svg version="1.1" id="Layer_1" xmlns="http://www.w3.org/2000/svg" xmlns:xlink="http://www.w3.org/1999/xlink" x="0px" y="0px"
	 width="500px" height="500px" viewBox="0 0 500 500" style="enable-background:new 0 0 500 500;" xml:space="preserve">
<g>
	<path style="fill:#CC6699;" d="M250,41.5c115.2,0,208.5,93.3,208.5,208.5S365.2,458.5,250,458.5S41.5,365.1,41.5,250
		S134.8,41.5,250,41.5"/>
	<g>
		<path style="fill:#FFFFFF;" d="M176.7,128.1l1.9,3.5l-4.3,2.4l-2-3.7c-2-3.7-4.7-5.1-8-3.3c-3.3,1.8-3.6,4.8-1.6,8.5l11.8,21.6
			c2,3.7,4.7,5.1,8,3.3c3.3-1.8,3.6-4.8,1.6-8.5l-4.5-8.2l-4.2,2.3l-2.2-4.1l8.5-4.7l6.6,12c3.4,6.2,2.7,11.9-3.6,15.3
			c-6.2,3.4-11.4,0.9-14.8-5.3l-11.6-21.1c-3.4-6.2-2.7-11.9,3.5-15.3C168.2,119.4,173.3,121.9,176.7,128.1z"/>
		<path style="fill:#FFFFFF;" d="M186.2,124c-2.2-6.8-0.3-12.2,6.5-14.5c6.8-2.2,11.6,1,13.8,7.8l7.5,22.9
			c2.2,6.7,0.3,12.2-6.5,14.5c-6.8,2.2-11.6-1.1-13.8-7.8L186.2,124z M198.6,145.5c1.3,4,3.8,5.8,7.3,4.7c3.6-1.2,4.5-4.1,3.2-8.1
			l-7.7-23.4c-1.3-4-3.7-5.8-7.3-4.7c-3.5,1.2-4.5,4.1-3.2,8.1L198.6,145.5z"/>
		<path style="fill:#FFFFFF;" d="M228.4,149.1l-5.8-41.5l-8.5,1.2l-0.7-4.7l22.2-3.1l0.7,4.7l-8.5,1.2l5.8,41.5L228.4,149.1z"/>
		<path style="fill:#FFFFFF;" d="M251.1,126.4l-0.9,20.9l-5.2-0.2l2-46.5l5.2,0.2l-0.9,20.9l11.4,0.5l0.9-20.9l5.2,0.2l-2,46.5
			l-5.2-0.2l0.9-20.9L251.1,126.4z"/>
		<path style="fill:#FFFFFF;" d="M278.6,140.7l-4,8.7l-4.7-1.1l19.7-43.2l7.3,1.8l-2.3,47.4l-5-1.2l0.5-9.5L278.6,140.7z
			 M280.3,136.6l10.1,2.4l1.2-27.4L280.3,136.6z"/>
		<path style="fill:#FFFFFF;" d="M312.9,162.6l-4.5-2.2l9.6-36.6L301.5,157l-4.1-2l20.7-41.7l6.5,3.2l-9.7,36.7l23.1-30l6.5,3.2
			l-20.7,41.7l-4.4-2.2l16.7-33.6L312.9,162.6z"/>
	</g>
	<path style="fill:#FFFFFF;" d="M335.5,272.6c-8.3,0-15.5,2-21.5,5c-2.2-4.4-4.4-8.3-4.8-11.1c-0.4-3.4-0.9-5.4-0.4-9.3
		c0.5-4,2.8-9.7,2.8-10.1c0-0.4-0.5-2.5-5.3-2.5c-4.8,0-8.9,0.9-9.3,2.2c-0.5,1.3-1.4,4.1-2,7.1c-0.8,4.3-9.5,19.8-14.5,27.9
		c-1.6-3.2-3-5.9-3.3-8.1c-0.4-3.4-0.9-5.4-0.4-9.3c0.5-4,2.8-9.7,2.8-10.1c0-0.4-0.5-2.5-5.3-2.5c-4.8,0-8.9,0.9-9.3,2.2
		c-0.5,1.3-1,4.2-2,7.1c-1,2.9-12.6,28.6-15.6,35.3c-1.5,3.4-2.9,6.1-3.8,8c0,0,0,0,0,0s-0.1,0.1-0.2,0.3c-0.8,1.6-1.3,2.5-1.3,2.5
		s0,0,0,0c-0.6,1.2-1.3,2.3-1.7,2.3c-0.2,0-0.7-3.1,0.1-7.4c1.7-8.9,5.9-22.9,5.8-23.4c0-0.2,0.8-2.7-2.7-3.9
		c-3.4-1.2-4.6,0.8-4.9,0.8c-0.3,0-0.5,0.7-0.5,0.7s3.8-15.7-7.2-15.7c-6.8,0-16.3,7.5-21,14.2c-2.9,1.6-9.2,5-15.9,8.7
		c-2.6,1.4-5.2,2.8-7.7,4.2c-0.2-0.2-0.3-0.4-0.5-0.6c-13.2-14.1-37.7-24.1-36.7-43.1c0.4-6.9,2.8-25.1,47.1-47.2
		c36.3-18.1,65.3-13.1,70.3-2.1c7.2,15.7-15.5,45-53.2,49.2c-14.4,1.6-21.9-4-23.8-6c-2-2.2-2.3-2.3-3-1.9c-1.2,0.7-0.4,2.6,0,3.7
		c1.1,2.9,5.7,8.1,13.6,10.7c6.9,2.3,23.8,3.5,44.1-4.4c22.8-8.8,40.6-33.4,35.4-53.9c-5.3-20.9-39.9-27.7-72.7-16.1
		c-19.5,6.9-40.6,17.8-55.8,32c-18,16.9-20.9,31.6-19.7,37.7c4.2,21.8,34.3,36,46.3,46.5c-0.6,0.3-1.1,0.6-1.7,0.9
		c-6,3-29,15-34.7,27.6c-6.5,14.4,1,24.7,6,26.1c15.5,4.3,31.3-3.4,39.8-16.2c8.5-12.7,7.5-29.3,3.6-36.8c0-0.1-0.1-0.2-0.2-0.3
		c1.6-0.9,3.1-1.9,4.7-2.8c3.1-1.8,6.1-3.5,8.7-4.9c-1.5,4-2.5,8.8-3.1,15.8c-0.7,8.2,2.7,18.7,7.1,22.9c1.9,1.8,4.2,1.9,5.7,1.9
		c5.1,0,7.4-4.2,10-9.2c3.1-6.1,5.9-13.3,5.9-13.3s-3.5,19.3,6,19.3c3.5,0,7-4.5,8.5-6.8c0,0,0,0,0,0s0.1-0.1,0.3-0.4
		c0.4-0.5,0.6-0.9,0.6-0.9s0,0,0-0.1c1.4-2.4,4.5-7.9,9.1-17c6-11.8,11.7-26.5,11.7-26.5s0.5,3.6,2.3,9.6c1,3.5,3.2,7.4,4.9,11.1
		c-1.4,1.9-2.2,3-2.2,3s0,0,0,0.1c-1.1,1.5-2.4,3.1-3.7,4.6c-4.7,5.6-10.4,12.1-11.1,13.9c-0.9,2.2-0.7,3.8,1,5.1
		c1.3,0.9,3.5,1.1,5.8,0.9c4.2-0.3,7.2-1.3,8.7-2c2.3-0.8,5-2.1,7.5-3.9c4.6-3.4,7.4-8.3,7.2-14.8c-0.1-3.6-1.3-7.1-2.7-10.4
		c0.4-0.6,0.8-1.2,1.3-1.8c7.3-10.7,13-22.4,13-22.4s0.5,3.6,2.3,9.6c0.9,3,2.6,6.3,4.2,9.5c-6.9,5.6-11.1,12.1-12.6,16.3
		c-2.7,7.9-0.6,11.4,3.4,12.3c1.8,0.4,4.4-0.5,6.3-1.3c2.4-0.8,5.3-2.1,8-4.1c4.6-3.4,9.1-8.2,8.8-14.6c-0.1-2.9-0.9-5.9-2-8.7
		c5.8-2.4,13.4-3.8,23-2.7c20.6,2.4,24.7,15.3,23.9,20.7s-5.1,8.3-6.5,9.2c-1.4,0.9-1.9,1.2-1.8,1.9c0.2,1,0.8,0.9,2.1,0.7
		c1.7-0.3,10.8-4.4,11.2-14.3C369,286.3,356.9,272.5,335.5,272.6z M176.6,326.1c-6.8,7.5-16.4,10.3-20.5,7.9
		c-4.4-2.6-2.7-13.5,5.7-21.4c5.1-4.8,11.7-9.3,16.1-12c1-0.6,2.5-1.5,4.2-2.5c0.3-0.2,0.5-0.3,0.5-0.3l0,0c0.3-0.2,0.7-0.4,1.1-0.6
		C186.7,308.4,183.7,318.3,176.6,326.1z M226.3,292.3c-2.4,5.8-7.4,20.6-10.4,19.8c-2.6-0.7-4.2-12-0.5-23.1
		c1.8-5.6,5.8-12.3,8.1-14.9c3.7-4.2,7.8-5.5,8.8-3.8C233.6,272.6,227.8,288.7,226.3,292.3z M267.4,311.9c-1,0.5-1.9,0.9-2.4,0.6
		c-0.3-0.2,0.4-0.9,0.4-0.9s5.1-5.5,7.2-8c1.2-1.5,2.5-3.2,4-5.1c0,0.2,0,0.4,0,0.6C276.7,305.7,270.3,310.1,267.4,311.9z
		 M299.1,304.7c-0.8-0.5-0.6-2.3,1.8-7.7c1-2.1,3.2-5.7,7-9.1c0.4,1.4,0.7,2.7,0.7,4C308.6,300.3,302.7,303.4,299.1,304.7z"/>
	<g>
		<path style="fill:#FFFFFF;" d="M201.9,385.6h-2.4l-3.6-17.5v17.5h-2.1v-21.9h3.4l3.6,17.5l3.5-17.5h3.4v21.9h-2.3V368L201.9,385.6
			z"/>
		<path style="fill:#FFFFFF;" d="M225.5,373.4v2.2h-5.4v7.8h6.6v2.2h-9v-21.9h9v2.2h-6.6v7.5H225.5z"/>
		<path style="fill:#FFFFFF;" d="M244.3,373.4v2.2H239v7.8h6.6v2.2h-9v-21.9h9v2.2H239v7.5H244.3z"/>
		<path style="fill:#FFFFFF;" d="M258.5,385.6v-19.7h-4v-2.2h10.5v2.2h-4v19.7H258.5z"/>
		<path style="fill:#FFFFFF;" d="M276.4,380.5c0,2,0.8,3.2,2.6,3.2c1.8,0,2.5-1.2,2.5-3.2v-16.8h2.3v16.6c0,3.3-1.5,5.5-4.9,5.5
			c-3.4,0-4.9-2.2-4.9-5.5v-16.6h2.4V380.5z"/>
		<path style="fill:#FFFFFF;" d="M298.5,363.7c3.4,0,4.9,2,4.9,5.4v2.6c0,3.5-1.6,5.3-5.1,5.3h-2.2v8.6h-2.4v-21.9H298.5z
			 M298.4,374.8c1.8,0,2.7-0.8,2.7-2.9v-2.9c0-2-0.7-3-2.5-3h-2.3v8.9H298.4z"/>
	</g>
	<g>
		<polygon style="fill:#FFFFFF;" points="279,401 279,403 252.4,403 251.1,409.1 249.2,408.7 250.5,403 246.6,403 245.2,409.1 
			243.3,408.7 244.6,403 219,403 219,401 245,401 246.3,395.1 248.2,395.6 247,401 250.9,401 252.2,395.1 254.1,395.6 252.9,401 		
			"/>
	</g>
</g>
</svg>
