<?xml version="1.0" encoding="utf-8"?>
<!-- Generator: Adobe Illustrator 18.1.1, SVG Export Plug-In . SVG Version: 6.00 Build 0)  -->
<svg version="1.1" id="Layer_1" xmlns="http://www.w3.org/2000/svg" xmlns:xlink="http://www.w3.org/1999/xlink" x="0px" y="0px"
	 viewBox="0 0 300 300" enable-background="new 0 0 300 300" xml:space="preserve">
<g>
	<g>
		<path fill="#220B3D" d="M150,300c-40.1,0-77.7-15.6-106.1-43.9C15.6,227.7,0,190.1,0,150c0-40.1,15.6-77.7,43.9-106.1
			C72.3,15.6,109.9,0,150,0s77.7,15.6,106.1,43.9c28.3,28.3,43.9,66,43.9,106.1c0,40.1-15.6,77.7-43.9,106.1
			C227.7,284.4,190.1,300,150,300z M150,3.4c-39.1,0-75.9,15.2-103.6,42.9S3.4,110.9,3.4,150c0,39.1,15.2,75.9,42.9,103.6
			c27.7,27.7,64.5,42.9,103.6,42.9c39.1,0,75.9-15.2,103.6-42.9c27.7-27.7,42.9-64.5,42.9-103.6s-15.2-75.9-42.9-103.6
			C225.9,18.7,189.1,3.4,150,3.4z"/>
	</g>
	<g>
		<path fill="#220B3D" d="M103.6,87.9l-1.8-1.5c0,1.9-1.3,3.4-3.2,4.3c-3.1,1.4-6.6,0.1-8.5-4.2l-8.7-19.9c-1.7-3.8-0.5-7.7,3.3-9.3
			c3.8-1.7,7,0.1,8.7,4l1.9,4.3l-3.2,1.4l-2.2-4.9c-0.6-1.4-2.1-2.3-3.8-1.5c-1.8,0.8-2.1,2.5-1.5,3.9l9.2,20.9
			c0.7,1.6,2.1,2.6,4,1.8c1.8-0.8,2.2-2.5,1.5-4.2L96,75.8l-2.6,1.1l-1.3-3l5.9-2.6l7,16L103.6,87.9z"/>
		<path fill="#220B3D" d="M118.6,83.6c-4,1-7.3-1.3-8.3-5.4l-5.3-20.8c-1-4.1,0.7-7.7,4.7-8.8c4-1,7.3,1.3,8.3,5.4l5.3,20.8
			C124.4,78.9,122.6,82.5,118.6,83.6z M114.3,54.4c-0.4-1.7-1.8-2.8-3.7-2.3c-1.9,0.5-2.5,2.1-2.1,3.8l5.6,21.9
			c0.5,1.8,1.8,2.8,3.6,2.3c1.9-0.5,2.6-2,2.1-3.8L114.3,54.4z"/>
		<path fill="#220B3D" d="M134.7,48.7l3,31.4l-3.7,0.4l-3-31.4l-4.7,0.4l-0.3-3.6l12.9-1.2l0.3,3.6L134.7,48.7z"/>
		<path fill="#220B3D" d="M157.5,80.1l0.9-15.6l-5.9-0.4l-0.9,15.6l-3.8-0.2l2.1-35l3.8,0.2l-1,15.9l5.9,0.4l1-15.9l3.7,0.2l-2.1,35
			L157.5,80.1z"/>
		<path fill="#220B3D" d="M178.3,83.5l0.7-7.6l-4.7-1.1l-2.8,7.2l-3.5-0.8L181,48.1l3.9,0.9l-2.8,35.4L178.3,83.5z M181,56.6
			l-5.5,14.8l3.8,0.9L181,56.6z"/>
		<path fill="#220B3D" d="M202,92.4L212.5,68l-3.2,5.3l-11,17.5l-3.2-1.4l5-20.1l1.6-5.9l-10.5,24.4l-3.1-1.3L202,54.2l5,2.1
			l-5.7,21.2l-1.6,5.9l3.2-5.3l11.4-18.7l4.8,2.1l-13.9,32.2L202,92.4z"/>
	</g>
	<g>
		<path fill="#220B3D" d="M219.9,166.8c-5.9,0-11.1,1.5-15.4,3.6c-1.6-3.1-3.2-5.9-3.4-8c-0.3-2.4-0.7-3.8-0.3-6.7
			c0.4-2.9,2-6.9,2-7.2s-0.4-1.8-3.8-1.8c-3.4,0-6.3,0.7-6.7,1.6c-0.3,0.9-1,2.9-1.4,5.1c-0.6,3.1-6.8,14.2-10.4,19.9
			c-1.2-2.3-2.1-4.2-2.3-5.8c-0.3-2.4-0.7-3.8-0.3-6.7c0.4-2.9,2-6.9,2-7.2c0-0.3-0.4-1.8-3.8-1.8c-3.4,0-6.3,0.7-6.7,1.6
			c-0.3,0.9-0.7,3-1.4,5.1c-0.7,2-9,20.5-11.1,25.3c-1.1,2.4-2.1,4.4-2.7,5.7c0,0,0,0,0,0s0,0.1-0.1,0.2c-0.6,1.1-0.9,1.8-0.9,1.8
			s0,0,0,0c-0.5,0.8-1,1.6-1.2,1.6c-0.2,0-0.5-2.2,0.1-5.3c1.2-6.4,4.2-16.4,4.2-16.7c0-0.2,0.6-1.9-1.9-2.8
			c-2.4-0.9-3.3,0.6-3.5,0.6c-0.2,0-0.4,0.5-0.4,0.5s2.7-11.2-5.1-11.2c-4.9,0-11.7,5.3-15,10.2c-2.1,1.1-6.6,3.6-11.4,6.2
			c-1.8,1-3.7,2-5.5,3c-0.1-0.1-0.2-0.3-0.4-0.4c-9.5-10.1-27-17.3-26.3-30.9c0.3-4.9,2-18,33.7-33.7c26-12.9,46.7-9.4,50.3-1.5
			c5.1,11.3-11.1,32.2-38.1,35.2c-10.3,1.2-15.7-2.8-17-4.3c-1.4-1.6-1.6-1.6-2.2-1.3c-0.9,0.5-0.3,1.9,0,2.7
			c0.8,2.1,4.1,5.8,9.7,7.7c5,1.6,17,2.5,31.6-3.1c16.3-6.3,29.1-23.9,25.3-38.6c-3.8-14.9-28.6-19.8-52-11.5
			c-14,5-29.1,12.7-39.9,22.9c-12.9,12.1-15,22.6-14.1,27c3,15.6,24.5,25.8,33.1,33.3c-0.4,0.2-0.8,0.5-1.2,0.7
			c-4.3,2.1-20.7,10.7-24.8,19.8c-4.7,10.3,0.7,17.7,4.3,18.7c11.1,3.1,22.4-2.5,28.5-11.6c6.1-9.1,5.4-20.9,2.6-26.3
			c0-0.1-0.1-0.1-0.1-0.2c1.1-0.7,2.3-1.3,3.4-2c2.2-1.3,4.4-2.5,6.2-3.5c-1,2.9-1.8,6.3-2.2,11.3c-0.5,5.8,1.9,13.4,5.1,16.4
			c1.4,1.3,3,1.3,4.1,1.3c3.6,0,5.3-3,7.1-6.6c2.2-4.4,4.2-9.5,4.2-9.5s-2.5,13.8,4.3,13.8c2.5,0,5-3.2,6.1-4.9c0,0,0,0,0,0
			s0.1-0.1,0.2-0.3c0.3-0.4,0.4-0.6,0.4-0.6s0,0,0-0.1c1-1.7,3.2-5.7,6.5-12.2c4.3-8.4,8.4-19,8.4-19s0.4,2.6,1.6,6.8
			c0.7,2.5,2.3,5.3,3.5,7.9c-1,1.4-1.6,2.2-1.6,2.2s0,0,0,0c-0.8,1.1-1.7,2.2-2.6,3.3c-3.4,4-7.4,8.6-8,10c-0.6,1.6-0.5,2.7,0.7,3.6
			c0.9,0.7,2.5,0.8,4.2,0.7c3-0.2,5.2-1,6.2-1.4c1.6-0.6,3.6-1.5,5.4-2.8c3.3-2.4,5.3-5.9,5.1-10.6c-0.1-2.5-0.9-5.1-1.9-7.5
			c0.3-0.4,0.6-0.9,0.9-1.3c5.2-7.6,9.3-16.1,9.3-16.1s0.4,2.6,1.6,6.8c0.6,2.2,1.9,4.5,3,6.8c-4.9,4-8,8.6-9,11.7
			c-2,5.6-0.4,8.2,2.5,8.8c1.3,0.3,3.1-0.3,4.5-0.9c1.7-0.6,3.8-1.5,5.7-2.9c3.3-2.4,6.5-5.9,6.3-10.5c-0.1-2.1-0.7-4.2-1.4-6.2
			c4.2-1.7,9.6-2.7,16.4-1.9c14.8,1.7,17.6,10.9,17.1,14.8c-0.6,3.9-3.6,6-4.7,6.6c-1,0.6-1.4,0.9-1.3,1.3c0.1,0.7,0.6,0.7,1.5,0.5
			c1.2-0.2,7.7-3.1,8-10.3C243.9,176.6,235.2,166.7,219.9,166.8z M106.2,205.1c-4.9,5.3-11.7,7.3-14.6,5.6
			c-3.2-1.8-1.9-9.7,4.1-15.3c3.7-3.4,8.4-6.6,11.5-8.6c0.7-0.4,1.8-1.1,3-1.8c0.2-0.1,0.3-0.2,0.3-0.2l0,0c0.2-0.1,0.5-0.3,0.8-0.5
			C113.4,192.4,111.3,199.5,106.2,205.1z M141.8,180.9c-1.7,4.1-5.3,14.8-7.4,14.2c-1.9-0.5-3-8.6-0.4-16.5c1.3-4,4.1-8.8,5.8-10.6
			c2.7-3,5.6-4,6.3-2.7C147,166.7,142.8,178.3,141.8,180.9z M171.2,194.9c-0.7,0.4-1.4,0.6-1.7,0.4c-0.2-0.1,0.3-0.6,0.3-0.6
			s3.7-4,5.1-5.8c0.8-1,1.8-2.3,2.9-3.7c0,0.1,0,0.3,0,0.4C177.8,190.4,173.2,193.6,171.2,194.9z M193.8,189.8
			c-0.5-0.4-0.4-1.6,1.3-5.5c0.7-1.5,2.3-4.1,5-6.5c0.3,1,0.5,2,0.5,2.9C200.7,186.6,196.4,188.8,193.8,189.8z"/>
	</g>
	<g>
		<path fill="#220B3D" d="M118.9,246.5v-11.6l-0.4,2.7l-1.4,8.9h-1.5l-1.4-8.9l-0.4-2.7v11.6h-1.5v-15.3h2.4l1.4,9.5l0.4,2.7
			l0.4-2.7l1.4-9.5h2.3v15.3H118.9z"/>
		<path fill="#220B3D" d="M128.7,246.5v-15.3h4.9v1.5h-3.2v5.1h2.3v1.5h-2.3v5.6h3.2v1.5H128.7z"/>
		<path fill="#220B3D" d="M141.6,246.5v-15.3h4.9v1.5h-3.2v5.1h2.3v1.5h-2.3v5.6h3.2v1.5H141.6z"/>
		<path fill="#220B3D" d="M158,232.8v13.8h-1.6v-13.8h-2v-1.6h5.7v1.6H158z"/>
		<path fill="#220B3D" d="M170.8,246.8c-1.7,0-2.9-1.2-2.9-3.1v-12.5h1.7v12.6c0,0.9,0.4,1.4,1.3,1.4c0.9,0,1.3-0.5,1.3-1.4v-12.6
			h1.6v12.5C173.7,245.6,172.4,246.8,170.8,246.8z"/>
		<path fill="#220B3D" d="M184.9,240h-1.4v6.5h-1.7v-15.3h3c1.4,0,2.6,0.8,2.6,2.8v3.3C187.5,239.3,186.3,240,184.9,240z
			 M185.8,233.9c0-0.7-0.3-1.1-0.9-1.1h-1.4v5.8h1.4c0.6,0,0.9-0.4,0.9-1.1V233.9z"/>
	</g>
	<g>
		<rect x="129" y="257" fill="#220B3D" width="43" height="2"/>
		<g>
			<path fill="#220B3D" d="M146.5,263.2h-1.1l4-10.4h1.1L146.5,263.2z"/>
			<path fill="#220B3D" d="M151.5,263.2h-1.1l4-10.4h1.1L151.5,263.2z"/>
		</g>
	</g>
</g>
</svg>
