<?xml version="1.0" encoding="utf-8"?>
<!-- Generator: Adobe Illustrator 18.1.1, SVG Export Plug-In . SVG Version: 6.00 Build 0)  -->
<svg version="1.1" id="Layer_1" xmlns="http://www.w3.org/2000/svg" xmlns:xlink="http://www.w3.org/1999/xlink" x="0px" y="0px"
	 viewBox="0 0 300 300" enable-background="new 0 0 300 300" xml:space="preserve">
<g>
	<circle fill="#FDF14D" cx="150" cy="150" r="150"/>
	<g>
		<path fill="#220B3D" d="M103,87.2l-1.8-1.5c0,1.9-1.3,3.5-3.3,4.3c-3.1,1.4-6.7,0.1-8.6-4.2l-8.8-20.1c-1.7-3.8-0.5-7.8,3.3-9.4
			c3.8-1.7,7.1,0.1,8.8,4.1l1.9,4.4l-3.2,1.4l-2.2-5c-0.6-1.5-2.1-2.3-3.9-1.6c-1.8,0.8-2.2,2.5-1.5,4l9.3,21.2
			c0.7,1.7,2.1,2.6,4,1.8c1.9-0.8,2.2-2.5,1.5-4.2l-3.3-7.4l-2.6,1.1L91.5,73l6-2.6l7.1,16.2L103,87.2z"/>
		<path fill="#220B3D" d="M118.2,82.8c-4,1-7.4-1.3-8.4-5.5l-5.4-21.1c-1.1-4.1,0.7-7.8,4.8-8.9c4-1,7.4,1.4,8.4,5.5l5.4,21.1
			C124.1,78.1,122.3,81.8,118.2,82.8z M113.8,53.3c-0.4-1.8-1.8-2.8-3.7-2.3c-1.9,0.5-2.5,2.1-2.1,3.8l5.6,22.1
			c0.5,1.8,1.8,2.8,3.7,2.4c1.9-0.5,2.6-2,2.2-3.9L113.8,53.3z"/>
		<path fill="#220B3D" d="M134.5,47.6l3,31.7l-3.8,0.4l-3-31.7l-4.7,0.5l-0.3-3.6l13.1-1.2l0.3,3.6L134.5,47.6z"/>
		<path fill="#220B3D" d="M157.6,79.3l1-15.8l-6-0.4l-1,15.8l-3.9-0.2l2.1-35.4l3.9,0.2l-1,16.1l6,0.4l1-16.1l3.8,0.2l-2.1,35.4
			L157.6,79.3z"/>
		<path fill="#220B3D" d="M178.6,82.7l0.8-7.7l-4.8-1.1l-2.8,7.2l-3.5-0.8l13.1-33.4l3.9,0.9l-2.8,35.8L178.6,82.7z M181.4,55.6
			l-5.5,15l3.8,0.9L181.4,55.6z"/>
		<path fill="#220B3D" d="M202.6,91.7L213.2,67l-3.2,5.3l-11.2,17.7l-3.3-1.4l5.1-20.3l1.7-6L191.7,87l-3.1-1.3l14-32.6l5,2.2
			l-5.7,21.4l-1.7,6l3.2-5.3L215,58.4l4.9,2.1l-14,32.6L202.6,91.7z"/>
	</g>
	<path fill="#220B3D" d="M220.7,166.9c-6,0-11.2,1.5-15.5,3.6c-1.6-3.2-3.2-6-3.5-8.1c-0.3-2.4-0.7-3.9-0.3-6.8c0.4-2.9,2.1-7,2-7.3
		c0-0.3-0.4-1.8-3.8-1.8c-3.5,0-6.4,0.7-6.8,1.6c-0.3,0.9-1,3-1.4,5.1c-0.6,3.1-6.9,14.3-10.5,20.2c-1.2-2.3-2.2-4.3-2.4-5.9
		c-0.3-2.4-0.7-3.9-0.3-6.8c0.4-2.9,2.1-7,2-7.3c0-0.3-0.4-1.8-3.8-1.8c-3.5,0-6.4,0.7-6.8,1.6c-0.3,0.9-0.7,3-1.4,5.1
		c-0.7,2.1-9.1,20.7-11.3,25.6c-1.1,2.5-2.1,4.4-2.8,5.8c0,0,0,0,0,0s0,0.1-0.1,0.2c-0.6,1.2-0.9,1.8-0.9,1.8s0,0,0,0
		c-0.5,0.8-1,1.6-1.2,1.6c-0.2,0-0.5-2.3,0.1-5.3c1.2-6.5,4.2-16.6,4.2-16.9c0-0.2,0.6-1.9-2-2.9c-2.4-0.9-3.3,0.6-3.5,0.6
		c-0.2,0-0.4,0.5-0.4,0.5s2.7-11.4-5.2-11.4c-4.9,0-11.8,5.4-15.2,10.3c-2.1,1.2-6.7,3.6-11.5,6.3c-1.9,1-3.8,2.1-5.5,3.1
		c-0.1-0.1-0.2-0.3-0.4-0.4c-9.6-10.2-27.3-17.5-26.6-31.2c0.3-5,2-18.2,34.1-34.1c26.3-13.1,47.3-9.5,50.9-1.5
		c5.2,11.4-11.2,32.6-38.5,35.6c-10.4,1.2-15.9-2.9-17.2-4.4c-1.4-1.6-1.6-1.6-2.2-1.4c-0.9,0.5-0.3,1.9,0,2.7
		c0.8,2.1,4.2,5.9,9.8,7.7c5,1.6,17.2,2.5,32-3.2c16.5-6.4,29.4-24.2,25.6-39c-3.9-15.1-28.9-20.1-52.6-11.7
		c-14.1,5-29.4,12.9-40.4,23.2c-13.1,12.2-15.1,22.8-14.3,27.3c3,15.8,24.8,26.1,33.5,33.7c-0.4,0.2-0.8,0.5-1.2,0.7
		c-4.4,2.2-21,10.8-25.1,20c-4.7,10.4,0.7,17.9,4.4,18.9c11.2,3.1,22.7-2.5,28.8-11.7c6.2-9.2,5.4-21.2,2.6-26.7
		c0-0.1-0.1-0.1-0.1-0.2c1.1-0.7,2.3-1.3,3.4-2c2.2-1.3,4.4-2.5,6.3-3.6c-1.1,2.9-1.8,6.4-2.2,11.4c-0.5,5.9,1.9,13.5,5.1,16.5
		c1.4,1.3,3.1,1.4,4.1,1.4c3.7,0,5.4-3.1,7.2-6.7c2.3-4.4,4.3-9.6,4.3-9.6s-2.5,14,4.4,14c2.5,0,5-3.3,6.2-4.9c0,0,0,0,0,0
		s0.1-0.1,0.2-0.3c0.3-0.4,0.4-0.7,0.4-0.7s0,0,0-0.1c1-1.8,3.2-5.7,6.6-12.3c4.3-8.5,8.5-19.2,8.5-19.2s0.4,2.6,1.7,6.9
		c0.7,2.5,2.3,5.3,3.6,8c-1,1.4-1.6,2.2-1.6,2.2s0,0,0,0c-0.8,1.1-1.7,2.2-2.6,3.3c-3.4,4.1-7.5,8.7-8,10.1
		c-0.6,1.6-0.5,2.7,0.8,3.7c0.9,0.7,2.5,0.8,4.2,0.7c3.1-0.2,5.2-1,6.3-1.4c1.7-0.6,3.6-1.5,5.4-2.9c3.4-2.5,5.4-6,5.2-10.7
		c-0.1-2.6-0.9-5.1-2-7.5c0.3-0.4,0.6-0.9,0.9-1.3c5.3-7.7,9.4-16.2,9.4-16.2s0.4,2.6,1.7,6.9c0.6,2.2,1.9,4.6,3,6.9
		c-5,4-8.1,8.7-9.1,11.8c-2,5.7-0.4,8.3,2.5,8.9c1.3,0.3,3.2-0.3,4.6-0.9c1.7-0.6,3.8-1.5,5.8-3c3.4-2.5,6.6-5.9,6.4-10.6
		c-0.1-2.1-0.7-4.2-1.4-6.3c4.2-1.8,9.7-2.7,16.6-1.9c14.9,1.7,17.9,11.1,17.3,15c-0.6,3.9-3.7,6-4.7,6.7c-1,0.6-1.4,0.9-1.3,1.4
		c0.1,0.7,0.6,0.7,1.5,0.5c1.2-0.2,7.8-3.2,8.1-10.4C245,176.9,236.2,166.9,220.7,166.9z M105.6,205.7c-4.9,5.4-11.9,7.4-14.8,5.7
		c-3.2-1.9-1.9-9.8,4.1-15.5c3.7-3.5,8.5-6.7,11.6-8.7c0.7-0.4,1.8-1.1,3.1-1.8c0.2-0.1,0.3-0.2,0.3-0.2l0,0
		c0.2-0.1,0.5-0.3,0.8-0.5C113,192.9,110.8,200.1,105.6,205.7z M141.7,181.2c-1.7,4.2-5.3,14.9-7.5,14.4c-1.9-0.5-3-8.7-0.4-16.7
		c1.3-4,4.2-8.9,5.9-10.8c2.7-3,5.7-4,6.4-2.8C146.9,166.9,142.7,178.6,141.7,181.2z M171.4,195.4c-0.7,0.4-1.4,0.6-1.7,0.4
		c-0.2-0.1,0.3-0.6,0.3-0.6s3.7-4,5.2-5.8c0.9-1.1,1.8-2.3,2.9-3.7c0,0.1,0,0.3,0,0.4C178.1,190.9,173.5,194.1,171.4,195.4z
		 M194.3,190.2c-0.5-0.4-0.5-1.6,1.3-5.5c0.7-1.5,2.3-4.1,5.1-6.6c0.3,1,0.5,2,0.5,2.9C201.2,187,196.9,189.3,194.3,190.2z"/>
	<g>
		<path fill="#220B3D" d="M118.5,247.6v-11.7l-0.4,2.7l-1.4,9h-1.6l-1.5-9l-0.4-2.7v11.7h-1.5v-15.5h2.4l1.4,9.6l0.4,2.7l0.4-2.7
			l1.4-9.6h2.3v15.5H118.5z"/>
		<path fill="#220B3D" d="M128.4,247.6v-15.5h4.9v1.6h-3.3v5.2h2.3v1.5h-2.3v5.7h3.3v1.6H128.4z"/>
		<path fill="#220B3D" d="M141.5,247.6v-15.5h4.9v1.6h-3.3v5.2h2.3v1.5h-2.3v5.7h3.3v1.6H141.5z"/>
		<path fill="#220B3D" d="M158.1,233.7v13.9h-1.7v-13.9h-2.1v-1.6h5.7v1.6H158.1z"/>
		<path fill="#220B3D" d="M171,247.9c-1.7,0-2.9-1.2-2.9-3.1v-12.6h1.7v12.7c0,1,0.4,1.4,1.3,1.4c0.9,0,1.3-0.5,1.3-1.4v-12.7h1.6
			v12.6C173.9,246.7,172.7,247.9,171,247.9z"/>
		<path fill="#220B3D" d="M185.3,241.1H184v6.6h-1.7v-15.5h3c1.4,0,2.6,0.8,2.6,2.8v3.3C187.9,240.3,186.8,241.1,185.3,241.1z
			 M186.2,234.9c0-0.7-0.3-1.1-0.9-1.1H184v5.8h1.4c0.6,0,0.9-0.4,0.9-1.1V234.9z"/>
	</g>
	<g>
		<rect x="129" y="258" fill="#220B3D" width="43" height="2"/>
		<g>
			<path fill="#220B3D" d="M146.5,264.5h-1.2l4-10.5h1.2L146.5,264.5z"/>
			<path fill="#220B3D" d="M151.5,264.5h-1.2l4-10.5h1.2L151.5,264.5z"/>
		</g>
	</g>
</g>
</svg>
