<?xml version="1.0" encoding="utf-8"?>
<!-- Generator: Adobe Illustrator 18.1.1, SVG Export Plug-In . SVG Version: 6.00 Build 0)  -->
<svg version="1.1" id="Layer_1" xmlns="http://www.w3.org/2000/svg" xmlns:xlink="http://www.w3.org/1999/xlink" x="0px" y="0px"
	 viewBox="0 0 300 300" enable-background="new 0 0 300 300" xml:space="preserve">
<g>
	<g>
		<path fill="#220B3D" d="M260.4,300H26.6V0h233.8V300z M32,294.7h223.1V5.3H32V294.7z"/>
	</g>
	<g>
		<path fill="#220B3D" d="M84.3,66.2l-1-2.5c-1.1,2.1-3.2,3.2-6,3.2c-5.1,0-7.9-3.6-7.9-9V37c0-5,2.9-9,8.6-9c5.7,0,8.2,3.7,8.2,9
			v3.4h-4.6v-4c0-2.1-1-4.1-3.7-4.1c-2.8,0-3.9,2-3.9,4.1v22.1c0,2.3,1.3,4.2,4.2,4.2c2.8,0,4.2-2,4.2-4.2V51h-4.6v-3.8h9.1v19H84.3
			z"/>
		<path fill="#220B3D" d="M103.9,66.9c-5.7,0-8.8-3.9-8.8-9.2V37.3c0-5.3,3-9.2,8.8-9.2c5.7,0,8.8,3.9,8.8,9.2v20.4
			C112.7,63,109.7,66.9,103.9,66.9z M108.1,36.7c0-2.5-1.4-4.5-4.2-4.5c-2.8,0-4.2,1.9-4.2,4.5v21.4c0,2.6,1.4,4.5,4.2,4.5
			c2.8,0,4.2-1.9,4.2-4.5V36.7z"/>
		<path fill="#220B3D" d="M131.7,32.7v33.5h-4.6V32.7H121v-3.8h17.5v3.8H131.7z"/>
		<path fill="#220B3D" d="M159.9,66.2V49.5h-8.4v16.8h-4.6V28.9h4.6v16.8h8.4V28.9h4.6v37.3H159.9z"/>
		<path fill="#220B3D" d="M187.3,66.2l-1.5-8.4h-6.6l-1.6,8.4h-4.5l7-37.3h5l7,37.3H187.3z M182.5,37.2l-2.6,16.1h5.2L182.5,37.2z"
			/>
		<path fill="#220B3D" d="M220,66.2V37.4l-1.2,6.8l-4.2,22h-4.5l-4.2-22l-1.2-6.8v28.8h-4.6V28.9h6.9l4.2,23.2l1.2,6.8l1.2-6.8
			l4.2-23.2h6.6v37.3H220z"/>
	</g>
	<g>
		<path fill="#220B3D" d="M92.9,273.4v-28.8l-1.3,6.8l-4.3,22h-4.5l-4.5-22l-1.4-6.8v28.8h-3.8V236h6.6l4.2,23.2l1.2,6.8l1.2-6.8
			l4.2-23.2h6.2v37.3H92.9z"/>
		<path fill="#220B3D" d="M106.6,273.4V236H121v3.8h-9.9V252h7.6v3.8h-7.6v12.9h9.9v4.6H106.6z"/>
		<path fill="#220B3D" d="M130.2,273.4V236h14.5v3.8h-9.9V252h7.6v3.8h-7.6v12.9h9.9v4.6H130.2z"/>
		<path fill="#220B3D" d="M163.7,239.8v33.5h-4.6v-33.5H153V236h16.8v3.8H163.7z"/>
		<path fill="#220B3D" d="M186.9,274c-5.1,0-8.7-3.2-8.7-8.6V236h5.3v29.5c0,2.8,1,4.3,3.8,4.3c2.8,0,3.8-1.5,3.8-4.3V236h4.6v29.3
			C195.7,270.8,192,274,186.9,274z"/>
		<path fill="#220B3D" d="M214.6,258.1h-4.4v15.2h-4.6V236h9c4.8,0,7.7,2.3,7.7,7.5v6.6C222.3,255.3,219.4,258.1,214.6,258.1z
			 M217.7,243.3c0-2.1-1.2-3.4-3.1-3.4h-4.5v13.7h4.5c2,0,3.1-1,3.1-3.1V243.3z"/>
	</g>
	<path fill="#220B3D" d="M241.8,160.9c-7.9,0-14.8,1.9-20.5,4.8c-2.1-4.2-4.2-7.9-4.6-10.6c-0.4-3.2-0.9-5.1-0.4-8.9
		c0.5-3.8,2.7-9.2,2.7-9.6s-0.5-2.3-5.1-2.4c-4.6,0-8.5,0.9-8.9,2.1c-0.5,1.2-1.3,3.9-1.9,6.7c-0.8,4.1-9.1,18.9-13.8,26.6
		c-1.5-3-2.9-5.7-3.1-7.8c-0.4-3.2-0.9-5.1-0.4-8.9c0.5-3.8,2.7-9.2,2.7-9.6c0-0.4-0.5-2.3-5.1-2.4c-4.6,0-8.5,0.9-8.9,2.1
		c-0.5,1.2-0.9,4-1.9,6.7c-0.9,2.7-12,27.3-14.9,33.7c-1.5,3.2-2.8,5.9-3.7,7.6c0,0,0,0,0,0s-0.1,0.1-0.2,0.3
		c-0.8,1.5-1.2,2.4-1.2,2.4s0,0,0,0c-0.6,1.1-1.3,2.1-1.6,2.1c-0.2,0-0.7-3,0.1-7c1.6-8.5,5.6-21.8,5.6-22.3c0-0.2,0.7-2.6-2.6-3.8
		c-3.2-1.2-4.4,0.8-4.7,0.8c-0.3,0-0.5,0.7-0.5,0.7s3.6-15-6.8-15c-6.5,0-15.5,7.1-20,13.6c-2.8,1.5-8.8,4.8-15.2,8.3
		c-2.4,1.3-4.9,2.7-7.3,4c-0.2-0.2-0.3-0.4-0.5-0.5c-12.6-13.5-36-23-35-41.2c0.4-6.6,2.7-23.9,44.9-45c34.6-17.2,62.3-12.5,67.1-2
		c6.8,15-14.8,43-50.8,47c-13.7,1.5-20.9-3.8-22.7-5.7c-1.9-2.1-2.2-2.2-2.9-1.8c-1.1,0.6-0.4,2.5,0,3.6c1.1,2.8,5.5,7.7,13,10.2
		c6.6,2.2,22.7,3.4,42.1-4.2c21.8-8.4,38.8-31.9,33.8-51.4c-5.1-19.9-38.1-26.5-69.4-15.4c-18.6,6.6-38.7,17-53.2,30.5
		c-17.2,16.1-20,30.1-18.8,36c4,20.8,32.7,34.4,44.2,44.4c-0.6,0.3-1.1,0.6-1.6,0.9c-5.8,2.8-27.6,14.3-33.1,26.4
		c-6.2,13.7,1,23.6,5.7,24.9c14.8,4.1,29.9-3.3,38-15.4c8.1-12.1,7.1-27.9,3.4-35.1c0-0.1-0.1-0.2-0.1-0.3c1.5-0.9,3-1.8,4.5-2.7
		c2.9-1.7,5.8-3.3,8.3-4.7c-1.4,3.8-2.4,8.4-3,15c-0.6,7.8,2.6,17.8,6.7,21.8c1.8,1.7,4.1,1.8,5.5,1.8c4.9,0,7.1-4,9.5-8.8
		c3-5.9,5.6-12.7,5.6-12.7s-3.3,18.4,5.7,18.4c3.3,0,6.6-4.3,8.1-6.5c0,0,0,0,0,0s0.1-0.1,0.3-0.4c0.3-0.5,0.5-0.9,0.5-0.9
		s0,0,0-0.1c1.3-2.3,4.3-7.6,8.7-16.3c5.7-11.2,11.2-25.3,11.2-25.3s0.5,3.4,2.2,9.1c1,3.3,3.1,7,4.7,10.6c-1.3,1.8-2.1,2.9-2.1,2.9
		s0,0,0,0.1c-1.1,1.4-2.2,2.9-3.5,4.4c-4.5,5.4-9.9,11.5-10.6,13.3c-0.8,2.1-0.6,3.6,1,4.9c1.2,0.9,3.3,1,5.6,0.9
		c4.1-0.3,6.9-1.3,8.3-1.9c2.2-0.8,4.7-2,7.1-3.8c4.4-3.3,7.1-7.9,6.8-14.1c-0.1-3.4-1.2-6.8-2.6-9.9c0.4-0.6,0.8-1.2,1.2-1.8
		c7-10.2,12.4-21.4,12.4-21.4s0.5,3.4,2.2,9.1c0.8,2.9,2.5,6,4,9.1c-6.6,5.3-10.6,11.5-12,15.6c-2.6,7.5-0.6,10.9,3.3,11.7
		c1.7,0.4,4.2-0.4,6-1.2c2.3-0.8,5.1-2,7.6-3.9c4.4-3.3,8.7-7.8,8.4-14c-0.1-2.8-0.9-5.6-1.9-8.3c5.6-2.3,12.8-3.6,21.9-2.5
		c19.7,2.3,23.5,14.6,22.8,19.7c-0.7,5.1-4.9,8-6.2,8.8c-1.4,0.9-1.8,1.1-1.7,1.8c0.2,0.9,0.8,0.9,2,0.7c1.6-0.3,10.3-4.2,10.7-13.7
		C273.8,174.1,262.3,160.8,241.8,160.9z M90.2,212.1c-6.5,7.1-15.6,9.8-19.5,7.5c-4.2-2.4-2.5-12.9,5.5-20.5
		c4.9-4.6,11.2-8.8,15.3-11.4c0.9-0.6,2.3-1.4,4-2.4c0.3-0.2,0.4-0.2,0.4-0.2l0,0c0.3-0.2,0.7-0.4,1-0.6
		C99.8,195.2,97,204.6,90.2,212.1z M137.7,179.8c-2.3,5.5-7,19.7-9.9,18.9c-2.5-0.7-4-11.4-0.5-22c1.8-5.3,5.5-11.7,7.7-14.2
		c3.6-4,7.5-5.3,8.4-3.7C144.6,160.9,139.1,176.3,137.7,179.8z M176.9,198.5c-1,0.5-1.8,0.8-2.3,0.6c-0.3-0.2,0.4-0.8,0.4-0.8
		s4.9-5.3,6.8-7.7c1.1-1.4,2.4-3.1,3.8-4.9c0,0.2,0,0.4,0,0.6C185.7,192.5,179.6,196.8,176.9,198.5z M207.1,191.6
		c-0.7-0.5-0.6-2.2,1.8-7.3c0.9-2,3-5.4,6.7-8.7c0.4,1.3,0.7,2.6,0.7,3.8C216.2,187.4,210.5,190.4,207.1,191.6z"/>
</g>
</svg>
