<?xml version="1.0" encoding="utf-8"?>
<!-- Generator: Adobe Illustrator 18.1.1, SVG Export Plug-In . SVG Version: 6.00 Build 0)  -->
<svg version="1.1" id="Layer_1" xmlns="http://www.w3.org/2000/svg" xmlns:xlink="http://www.w3.org/1999/xlink" x="0px" y="0px"
	 viewBox="0 0 300 300" enable-background="new 0 0 300 300" xml:space="preserve">
<g>
	<g>
		<path fill="#CAFFAA" d="M265.8,300H39.1V9h226.8V300z"/>
	</g>
	<g>
		<g>
			<path fill="#FFFFFF" d="M257.3,293.3H30.5V2.3h226.8V293.3z M35.7,288.2h216.4V7.5H35.7V288.2z"/>
		</g>
		<g>
			<path fill="#FFFFFF" d="M86.4,66.6l-1-2.5c-1,2.1-3.1,3.1-5.9,3.1c-4.9,0-7.7-3.5-7.7-8.7V38.2c0-4.8,2.8-8.7,8.3-8.7
				c5.6,0,7.9,3.6,7.9,8.7v3.3h-4.4v-3.9c0-2.1-0.9-3.9-3.6-3.9c-2.7,0-3.8,2-3.8,4V59c0,2.2,1.3,4.1,4.1,4.1c2.7,0,4.1-1.9,4.1-4.1
				v-7.3H80v-3.7h8.9v18.5H86.4z"/>
			<path fill="#FFFFFF" d="M105.5,67.2c-5.6,0-8.5-3.8-8.5-9V38.4c0-5.1,2.9-9,8.5-9c5.6,0,8.5,3.8,8.5,9v19.8
				C114,63.4,111,67.2,105.5,67.2z M109.5,37.9c0-2.5-1.4-4.3-4.1-4.3c-2.7,0-4.1,1.9-4.1,4.3v20.8c0,2.5,1.3,4.3,4.1,4.3
				c2.7,0,4.1-1.8,4.1-4.3V37.9z"/>
			<path fill="#FFFFFF" d="M132.4,34.1v32.5H128V34.1h-5.9v-3.7h17v3.7H132.4z"/>
			<path fill="#FFFFFF" d="M159.8,66.6V50.3h-8.1v16.3h-4.4V30.4h4.4v16.3h8.1V30.4h4.4v36.2H159.8z"/>
			<path fill="#FFFFFF" d="M186.4,66.6l-1.5-8.1h-6.5l-1.5,8.1h-4.3l6.8-36.2h4.8l6.8,36.2H186.4z M181.7,38.4L179.2,54h5
				L181.7,38.4z"/>
			<path fill="#FFFFFF" d="M218.1,66.6v-28l-1.1,6.6l-4.1,21.3h-4.4l-4.1-21.3l-1.1-6.6v28h-4.4V30.4h6.7l4.1,22.5l1.2,6.6l1.1-6.6
				l4-22.5h6.5v36.2H218.1z"/>
		</g>
		<g>
			<path fill="#FFFFFF" d="M94.8,267.5v-28l-1.3,6.6l-4.2,21.3h-4.4l-4.3-21.3l-1.4-6.6v28h-3.7v-36.2H82l4.1,22.5l1.2,6.6l1.1-6.6
				l4-22.5h6v36.2H94.8z"/>
			<path fill="#FFFFFF" d="M108.1,267.5v-36.2h14v3.7h-9.6v11.8h7.4v3.7h-7.4V263h9.6v4.4H108.1z"/>
			<path fill="#FFFFFF" d="M131,267.5v-36.2h14v3.7h-9.6v11.8h7.4v3.7h-7.4V263h9.6v4.4H131z"/>
			<path fill="#FFFFFF" d="M163.5,235v32.5H159V235h-5.9v-3.7h16.3v3.7H163.5z"/>
			<path fill="#FFFFFF" d="M186,268.1c-4.9,0-8.5-3.1-8.5-8.4v-28.5h5.2v28.6c0,2.7,1,4.2,3.7,4.2c2.7,0,3.7-1.4,3.7-4.2v-28.6h4.4
				v28.5C194.5,265,190.9,268.1,186,268.1z"/>
			<path fill="#FFFFFF" d="M212.8,252.7h-4.3v14.8h-4.4v-36.2h8.7c4.6,0,7.5,2.2,7.5,7.3v6.5C220.3,250,217.5,252.7,212.8,252.7z
				 M215.9,238.3c0-2.1-1.1-3.3-3-3.3h-4.4v13.3h4.4c1.9,0,3-1,3-3V238.3z"/>
		</g>
		<path fill="#FFFFFF" d="M239.3,158.4c-7.7,0-14.3,1.9-19.9,4.6c-2-4.1-4.1-7.6-4.4-10.3c-0.4-3.1-0.9-5-0.4-8.7
			c0.5-3.7,2.6-8.9,2.6-9.3c0-0.4-0.5-2.3-4.9-2.3c-4.4,0-8.2,0.9-8.7,2c-0.4,1.2-1.3,3.8-1.8,6.5c-0.8,4-8.8,18.3-13.4,25.8
			c-1.5-2.9-2.8-5.5-3-7.5c-0.4-3.1-0.9-5-0.4-8.7c0.5-3.7,2.6-8.9,2.6-9.3c0-0.4-0.5-2.3-4.9-2.3c-4.4,0-8.2,0.9-8.7,2
			c-0.4,1.2-0.9,3.9-1.8,6.5c-0.9,2.6-11.6,26.5-14.4,32.7c-1.4,3.2-2.7,5.7-3.6,7.4c0,0,0,0,0,0s-0.1,0.1-0.1,0.3
			c-0.8,1.5-1.2,2.3-1.2,2.3s0,0,0,0c-0.6,1.1-1.2,2.1-1.6,2.1c-0.2,0-0.7-2.9,0.1-6.8c1.6-8.3,5.4-21.2,5.4-21.6
			c0-0.2,0.7-2.5-2.5-3.7c-3.1-1.1-4.2,0.8-4.5,0.8c-0.3,0-0.5,0.7-0.5,0.7s3.5-14.5-6.6-14.5c-6.3,0-15.1,6.9-19.4,13.2
			c-2.7,1.5-8.6,4.7-14.7,8.1c-2.4,1.3-4.8,2.6-7.1,3.9c-0.2-0.2-0.3-0.3-0.5-0.5c-12.3-13.1-34.9-22.3-34-39.9
			c0.3-6.4,2.6-23.2,43.6-43.7c33.6-16.7,60.5-12.1,65.1-1.9c6.6,14.6-14.4,41.7-49.2,45.6c-13.3,1.5-20.3-3.7-22-5.6
			c-1.8-2-2.1-2.1-2.8-1.7c-1.1,0.6-0.4,2.4,0,3.5c1,2.7,5.3,7.5,12.6,9.9c6.4,2.1,22,3.3,40.9-4c21.1-8.2,37.6-30.9,32.8-49.9
			c-4.9-19.3-37-25.7-67.3-14.9c-18,6.4-37.6,16.5-51.6,29.6c-16.7,15.6-19.4,29.2-18.3,34.9c3.9,20.2,31.7,33.3,42.9,43.1
			c-0.5,0.3-1.1,0.6-1.5,0.8c-5.6,2.8-26.8,13.9-32.1,25.6c-6,13.3,1,22.9,5.6,24.1c14.3,4,29-3.2,36.9-15
			c7.9-11.8,6.9-27.1,3.3-34.1c0-0.1-0.1-0.2-0.1-0.3c1.4-0.9,2.9-1.7,4.4-2.6c2.8-1.7,5.6-3.2,8.1-4.5c-1.4,3.7-2.3,8.2-2.9,14.6
			c-0.6,7.6,2.5,17.3,6.5,21.2c1.8,1.7,3.9,1.7,5.3,1.7c4.7,0,6.9-3.9,9.2-8.6c2.9-5.7,5.5-12.3,5.5-12.3s-3.2,17.9,5.6,17.9
			c3.2,0,6.4-4.2,7.9-6.3c0,0,0,0,0,0s0.1-0.1,0.2-0.4c0.3-0.5,0.5-0.8,0.5-0.8s0,0,0-0.1c1.3-2.2,4.2-7.3,8.4-15.8
			c5.5-10.9,10.9-24.5,10.9-24.5s0.5,3.3,2.1,8.8c1,3.2,3,6.8,4.6,10.3c-1.3,1.8-2.1,2.8-2.1,2.8s0,0,0,0.1c-1,1.4-2.2,2.8-3.4,4.3
			c-4.4,5.2-9.6,11.2-10.3,12.9c-0.8,2-0.6,3.5,1,4.7c1.2,0.9,3.2,1,5.4,0.9c3.9-0.3,6.7-1.2,8.1-1.8c2.1-0.8,4.6-1.9,6.9-3.6
			c4.3-3.2,6.9-7.7,6.6-13.7c-0.1-3.3-1.2-6.6-2.5-9.6c0.4-0.6,0.8-1.1,1.2-1.7c6.8-9.9,12-20.8,12-20.8s0.5,3.3,2.1,8.8
			c0.8,2.8,2.4,5.8,3.9,8.8c-6.4,5.2-10.3,11.2-11.7,15.1c-2.5,7.3-0.5,10.6,3.2,11.3c1.7,0.3,4.1-0.4,5.9-1.2
			c2.2-0.7,4.9-2,7.4-3.8c4.3-3.2,8.4-7.6,8.2-13.6c-0.1-2.7-0.9-5.4-1.9-8c5.4-2.2,12.4-3.5,21.3-2.5c19.1,2.2,22.8,14.1,22.1,19.1
			c-0.7,5-4.7,7.7-6.1,8.6c-1.3,0.8-1.7,1.1-1.6,1.7c0.2,0.9,0.8,0.9,1.9,0.7c1.6-0.3,10-4.1,10.4-13.3
			C270.3,171.2,259.1,158.3,239.3,158.4z M92.1,208c-6.3,6.9-15.2,9.5-18.9,7.3c-4.1-2.4-2.5-12.5,5.3-19.8
			c4.7-4.5,10.8-8.6,14.9-11.1c0.9-0.6,2.3-1.4,3.9-2.4c0.3-0.2,0.4-0.2,0.4-0.2l0,0c0.3-0.2,0.6-0.4,1-0.6
			C101.5,191.6,98.8,200.8,92.1,208z M138.2,176.7c-2.2,5.4-6.8,19.1-9.6,18.4c-2.4-0.6-3.9-11.1-0.5-21.3
			c1.7-5.2,5.4-11.4,7.5-13.8c3.5-3.9,7.3-5.1,8.2-3.6C145,158.4,139.6,173.4,138.2,176.7z M176.3,194.9c-0.9,0.5-1.8,0.8-2.2,0.6
			c-0.3-0.2,0.4-0.8,0.4-0.8s4.8-5.1,6.6-7.5c1.1-1.4,2.4-3,3.7-4.8c0,0.2,0,0.4,0,0.5C184.8,189.1,178.9,193.2,176.3,194.9z
			 M205.6,188.2c-0.7-0.5-0.6-2.1,1.7-7.1c0.9-2,3-5.3,6.5-8.4c0.4,1.3,0.7,2.5,0.7,3.7C214.4,184.1,208.9,187,205.6,188.2z"/>
	</g>
	<g>
		<g>
			<path fill="#220B3D" d="M256.9,291H30.1V0h226.8V291z M35.3,285.9h216.4V5.2H35.3V285.9z"/>
		</g>
		<g>
			<path fill="#220B3D" d="M86,64.3l-1-2.5c-1,2.1-3.1,3.1-5.9,3.1c-4.9,0-7.7-3.5-7.7-8.7V35.9c0-4.8,2.8-8.7,8.3-8.7
				c5.6,0,7.9,3.6,7.9,8.7v3.3h-4.4v-3.9c0-2.1-0.9-3.9-3.6-3.9c-2.7,0-3.8,2-3.8,4v21.4c0,2.2,1.3,4.1,4.1,4.1
				c2.7,0,4.1-1.9,4.1-4.1v-7.3h-4.4v-3.7h8.9v18.5H86z"/>
			<path fill="#220B3D" d="M105.1,64.9c-5.6,0-8.5-3.8-8.5-9V36.1c0-5.1,2.9-9,8.5-9c5.6,0,8.5,3.8,8.5,9v19.8
				C113.6,61.1,110.7,64.9,105.1,64.9z M109.2,35.6c0-2.5-1.4-4.3-4.1-4.3c-2.7,0-4.1,1.9-4.1,4.3v20.8c0,2.5,1.3,4.3,4.1,4.3
				c2.7,0,4.1-1.8,4.1-4.3V35.6z"/>
			<path fill="#220B3D" d="M132.1,31.8v32.5h-4.4V31.8h-5.9v-3.7h17v3.7H132.1z"/>
			<path fill="#220B3D" d="M159.4,64.3V48h-8.1v16.3h-4.4V28.1h4.4v16.3h8.1V28.1h4.4v36.2H159.4z"/>
			<path fill="#220B3D" d="M186,64.3l-1.5-8.1h-6.5l-1.5,8.1h-4.3l6.8-36.2h4.8l6.8,36.2H186z M181.4,36.1l-2.6,15.6h5L181.4,36.1z"
				/>
			<path fill="#220B3D" d="M217.8,64.3v-28l-1.1,6.6l-4.1,21.3h-4.4l-4.1-21.3l-1.1-6.6v28h-4.4V28.1h6.7l4.1,22.5l1.2,6.6l1.1-6.6
				l4-22.5h6.5v36.2H217.8z"/>
		</g>
		<g>
			<path fill="#220B3D" d="M94.4,265.2v-28l-1.3,6.6l-4.2,21.3h-4.4l-4.3-21.3l-1.4-6.6v28h-3.7V229h6.4l4.1,22.5l1.2,6.6l1.1-6.6
				l4-22.5h6v36.2H94.4z"/>
			<path fill="#220B3D" d="M107.7,265.2V229h14v3.7h-9.6v11.8h7.4v3.7h-7.4v12.6h9.6v4.4H107.7z"/>
			<path fill="#220B3D" d="M130.6,265.2V229h14v3.7H135v11.8h7.4v3.7H135v12.6h9.6v4.4H130.6z"/>
			<path fill="#220B3D" d="M163.1,232.7v32.5h-4.4v-32.5h-5.9V229H169v3.7H163.1z"/>
			<path fill="#220B3D" d="M185.6,265.8c-4.9,0-8.5-3.1-8.5-8.4V229h5.2v28.6c0,2.7,1,4.2,3.7,4.2c2.7,0,3.7-1.4,3.7-4.2V229h4.4
				v28.5C194.1,262.7,190.6,265.8,185.6,265.8z"/>
			<path fill="#220B3D" d="M212.5,250.4h-4.3v14.8h-4.4V229h8.7c4.6,0,7.5,2.2,7.5,7.3v6.5C220,247.7,217.1,250.4,212.5,250.4z
				 M215.5,236c0-2.1-1.1-3.3-3-3.3h-4.4V246h4.4c1.9,0,3-1,3-3V236z"/>
		</g>
		<path fill="#220B3D" d="M238.9,156.1c-7.7,0-14.3,1.9-19.9,4.6c-2-4.1-4.1-7.6-4.4-10.3c-0.4-3.1-0.9-5-0.4-8.7
			c0.5-3.7,2.6-8.9,2.6-9.3c0-0.4-0.5-2.3-4.9-2.3c-4.4,0-8.2,0.9-8.7,2c-0.4,1.2-1.3,3.8-1.8,6.5c-0.8,4-8.8,18.3-13.4,25.8
			c-1.5-2.9-2.8-5.5-3-7.5c-0.4-3.1-0.9-5-0.4-8.7c0.5-3.7,2.6-8.9,2.6-9.3c0-0.4-0.5-2.3-4.9-2.3c-4.4,0-8.2,0.9-8.7,2
			c-0.4,1.2-0.9,3.9-1.8,6.5c-0.9,2.6-11.6,26.5-14.4,32.7c-1.4,3.2-2.7,5.7-3.6,7.4c0,0,0,0,0,0s-0.1,0.1-0.1,0.3
			c-0.8,1.5-1.2,2.3-1.2,2.3s0,0,0,0c-0.6,1.1-1.2,2.1-1.6,2.1c-0.2,0-0.7-2.9,0.1-6.8c1.6-8.3,5.4-21.2,5.4-21.6
			c0-0.2,0.7-2.5-2.5-3.7c-3.1-1.1-4.2,0.8-4.5,0.8c-0.3,0-0.5,0.7-0.5,0.7s3.5-14.5-6.6-14.5c-6.3,0-15.1,6.9-19.4,13.2
			c-2.7,1.5-8.6,4.7-14.7,8.1c-2.4,1.3-4.8,2.6-7.1,3.9c-0.2-0.2-0.3-0.3-0.5-0.5c-12.3-13.1-34.9-22.3-34-39.9
			c0.3-6.4,2.6-23.2,43.6-43.7c33.6-16.7,60.5-12.1,65.1-1.9c6.6,14.6-14.4,41.7-49.2,45.6c-13.3,1.5-20.3-3.7-22-5.6
			c-1.8-2-2.1-2.1-2.8-1.7c-1.1,0.6-0.4,2.4,0,3.5c1,2.7,5.3,7.5,12.6,9.9c6.4,2.1,22,3.3,40.9-4c21.1-8.2,37.6-30.9,32.8-49.9
			c-4.9-19.3-37-25.7-67.3-14.9c-18,6.4-37.6,16.5-51.6,29.6c-16.7,15.6-19.4,29.2-18.3,34.9c3.9,20.2,31.7,33.3,42.9,43.1
			c-0.5,0.3-1.1,0.6-1.5,0.8c-5.6,2.8-26.8,13.9-32.1,25.6c-6,13.3,1,22.9,5.6,24.1c14.3,4,29-3.2,36.9-15
			c7.9-11.8,6.9-27.1,3.3-34.1c0-0.1-0.1-0.2-0.1-0.3c1.4-0.9,2.9-1.7,4.4-2.6c2.8-1.7,5.6-3.2,8.1-4.5c-1.4,3.7-2.3,8.2-2.9,14.6
			c-0.6,7.6,2.5,17.3,6.5,21.2c1.8,1.7,3.9,1.7,5.3,1.7c4.7,0,6.9-3.9,9.2-8.6c2.9-5.7,5.5-12.3,5.5-12.3s-3.2,17.9,5.6,17.9
			c3.2,0,6.4-4.2,7.9-6.3c0,0,0,0,0,0s0.1-0.1,0.2-0.4c0.3-0.5,0.5-0.8,0.5-0.8s0,0,0-0.1c1.3-2.2,4.2-7.3,8.4-15.8
			c5.5-10.9,10.9-24.5,10.9-24.5s0.5,3.3,2.1,8.8c1,3.2,3,6.8,4.6,10.3c-1.3,1.8-2.1,2.8-2.1,2.8s0,0,0,0.1c-1,1.4-2.2,2.8-3.4,4.3
			c-4.4,5.2-9.6,11.2-10.3,12.9c-0.8,2-0.6,3.5,1,4.7c1.2,0.9,3.2,1,5.4,0.9c3.9-0.3,6.7-1.2,8.1-1.8c2.1-0.8,4.6-1.9,6.9-3.6
			c4.3-3.2,6.9-7.7,6.6-13.7c-0.1-3.3-1.2-6.6-2.5-9.6c0.4-0.6,0.8-1.1,1.2-1.7c6.8-9.9,12-20.8,12-20.8s0.5,3.3,2.1,8.8
			c0.8,2.8,2.4,5.8,3.9,8.8c-6.4,5.2-10.3,11.2-11.7,15.1c-2.5,7.3-0.5,10.6,3.2,11.3c1.7,0.3,4.1-0.4,5.9-1.2
			c2.2-0.7,4.9-2,7.4-3.8c4.3-3.2,8.4-7.6,8.2-13.6c-0.1-2.7-0.9-5.4-1.9-8c5.4-2.2,12.4-3.5,21.3-2.5c19.1,2.2,22.8,14.1,22.1,19.1
			c-0.7,5-4.7,7.7-6.1,8.6c-1.3,0.8-1.7,1.1-1.6,1.7c0.2,0.9,0.8,0.9,1.9,0.7c1.6-0.3,10-4.1,10.4-13.3
			C270,168.9,258.8,156,238.9,156.1z M91.8,205.7c-6.3,6.9-15.2,9.5-18.9,7.3c-4.1-2.4-2.5-12.5,5.3-19.8
			c4.7-4.5,10.8-8.6,14.9-11.1c0.9-0.6,2.3-1.4,3.9-2.4c0.3-0.2,0.4-0.2,0.4-0.2l0,0c0.3-0.2,0.6-0.4,1-0.6
			C101.2,189.3,98.4,198.5,91.8,205.7z M137.8,174.4c-2.2,5.4-6.8,19.1-9.6,18.4c-2.4-0.6-3.9-11.1-0.5-21.3
			c1.7-5.2,5.4-11.4,7.5-13.8c3.5-3.9,7.3-5.1,8.2-3.6C144.6,156.1,139.2,171.1,137.8,174.4z M175.9,192.6c-0.9,0.5-1.8,0.8-2.2,0.6
			c-0.3-0.2,0.4-0.8,0.4-0.8s4.8-5.1,6.6-7.5c1.1-1.4,2.4-3,3.7-4.8c0,0.2,0,0.4,0,0.5C184.5,186.8,178.5,190.9,175.9,192.6z
			 M205.2,185.9c-0.7-0.5-0.6-2.1,1.7-7.1c0.9-2,3-5.3,6.5-8.4c0.4,1.3,0.7,2.5,0.7,3.7C214.1,181.8,208.5,184.7,205.2,185.9z"/>
	</g>
</g>
</svg>
